#!OML:ASF I:\Random Stuff\random\construction\7_22_03\Session 2\subj1.ASF
:FULLY-SPECIFIED
:DEGREES
2485
root -7.89574 17.6825 -4.66274 -275.516 89.5057 -283.859
lowerback 5.72006 -0.328748 -2.67378
upperback 1.37018 -0.581549 -0.974164
thorax -1.77875 -0.266941 0.539827
lowerneck -21.9305 -4.15695 -3.76693
upperneck 40.2153 -3.60073 0.512289
head 19.233 -1.49921 0.25821
rclavicle 1.19271e-015 -5.1684e-015
rhumerus -36.8541 17.411 -75.79
rradius 67.1091
rwrist -24.2581
rhand -38.7069 24.0216
rfingers 7.12502
rthumb -11.721 -5.63048
lclavicle 1.19271e-015 -5.1684e-015
lhumerus -35.2727 -26.5994 87.7986
lradius 65.3932
lwrist 18.5137
lhand -31.6551 53.4093
lfingers 7.12502
lthumb -4.91571 -1356.67
rfemur -10.8641 7.28677 14.1372
rtibia 16.5533
rfoot -11.5453 -11.7862
rtoes -19.0164
lfemur -14.6918 -3.19765 -12.764
ltibia 22.3168
lfoot -9.90154 7.71178
ltoes -36.7202
2486
root -7.89504 17.6873 -4.5673 -276.563 89.4054 -284.547
lowerback 5.67156 -0.440641 -2.54321
upperback 1.34777 -0.720117 -0.754217
thorax -1.76962 -0.3376 0.70221
lowerneck -21.9463 -4.20293 -4.01529
upperneck 40.2718 -3.59999 0.592317
head 19.2855 -1.52516 0.340849
rclavicle 4.96962e-015 1.43125e-014
rhumerus -36.1625 17.3859 -75.9534
rradius 65.8994
rwrist -24.3521
rhand -39.459 24.5112
rfingers 7.12502
rthumb -12.4462 -5.09824
lclavicle 4.96962e-015 1.43125e-014
lhumerus -35.2293 -25.0387 87.665
lradius 64.0698
lwrist 19.7816
lhand -31.7495 53.8133
lfingers 7.12502
lthumb -5.00681 -1356.27
rfemur -10.4493 7.51886 14.4301
rtibia 16.5603
rfoot -11.7252 -11.8582
rtoes -18.2167
lfemur -14.1845 -3.56876 -12.5221
ltibia 22.0972
lfoot -9.31799 8.08074
ltoes -37.6416
2487
root -7.90174 17.6971 -4.46811 -285.392 89.369 -293.152
lowerback 5.60229 -0.505344 -2.35705
upperback 1.28842 -0.792931 -0.501936
thorax -1.78888 -0.375374 0.861889
lowerneck -21.9449 -4.27463 -4.31828
upperneck 40.2108 -3.61976 0.658651
head 19.2629 -1.57331 0.421049
rclavicle 4.96962e-017 1.07344e-014
rhumerus -35.3721 17.187 -76.1059
rradius 64.5336
rwrist -23.8548
rhand -40.72 25.5322
rfingers 7.12502
rthumb -13.6617 -3.99942
lclavicle 4.96962e-017 1.07344e-014
lhumerus -35.0937 -23.4482 87.5614
lradius 62.81
lwrist 21.0216
lhand -31.7025 54.1065
lfingers 7.12502
lthumb -4.96144 -1355.97
rfemur -10.2189 7.69658 14.8097
rtibia 16.5135
rfoot -11.7781 -11.8136
rtoes -17.2687
lfemur -13.8674 -3.75134 -12.1661
ltibia 21.9105
lfoot -8.6834 8.31974
ltoes -38.4201
2488
root -7.91436 17.7102 -4.36592 -290.705 89.279 -298.288
lowerback 5.59908 -0.538968 -2.21433
upperback 1.2231 -0.828202 -0.260157
thorax -1.85168 -0.393369 1.03327
lowerneck -21.9466 -4.38319 -4.60842
upperneck 40.0576 -3.68623 0.668026
head 19.1838 -1.64841 0.459645
rclavicle -7.10655e-015 -7.7526e-015
rhumerus -34.5126 16.9892 -76.2466
rradius 62.9924
rwrist -22.8202
rhand -42.3914 27.3847
rfingers 7.12502
rthumb -15.2722 -2.03144
lclavicle -7.10655e-015 -7.7526e-015
lhumerus -34.8132 -21.7975 87.486
lradius 61.4807
lwrist 22.2161
lhand -31.4919 54.4838
lfingers 7.12502
lthumb -4.7581 -1355.59
rfemur -10.0186 7.69506 15.1449
rtibia 16.3835
rfoot -11.7953 -11.6657
rtoes -16.7158
lfemur -13.6518 -3.96342 -11.8415
ltibia 21.7879
lfoot -8.03704 8.46589
ltoes -38.8051
2489
root -7.93279 17.7186 -4.26197 -288.096 89.1207 -295.502
lowerback 5.63793 -0.574275 -2.18173
upperback 1.18665 -0.871827 -0.0556518
thorax -1.90667 -0.414728 1.22907
lowerneck -21.8283 -4.43591 -4.80757
upperneck 39.6447 -3.7482 0.713335
head 18.911 -1.70803 0.500843
rclavicle -4.47266e-016 -9.54166e-015
rhumerus -33.5831 16.8037 -76.41
rradius 61.2713
rwrist -21.5021
rhand -43.9881 29.2555
rfingers 7.12502
rthumb -16.8097 -0.0368957
lclavicle -4.47266e-016 -9.54166e-015
lhumerus -34.4082 -20.0603 87.3717
lradius 60.0497
lwrist 23.2092
lhand -31.335 54.8564
lfingers 7.12502
lthumb -4.6066 -1355.21
rfemur -9.76701 7.85374 15.3537
rtibia 16.1274
rfoot -11.7469 -11.6755
rtoes -16.0896
lfemur -13.533 -4.24327 -11.6104
ltibia 21.7643
lfoot -7.29775 8.53877
ltoes -38.975
2490
root -7.95618 17.727 -4.15723 -286.139 89.0312 -293.43
lowerback 5.63728 -0.578422 -2.07241
upperback 1.16816 -0.867669 0.147664
thorax -1.92398 -0.413005 1.37668
lowerneck -21.4783 -4.48261 -4.98193
upperneck 38.9015 -3.87011 0.819147
head 18.3903 -1.78468 0.554976
rclavicle 1.14612e-015 -9.63484e-015
rhumerus -32.5779 16.3285 -76.5047
rradius 59.4568
rwrist -20.1205
rhand -45.3951 30.8758
rfingers 7.12502
rthumb -18.1638 1.70387
lclavicle 1.14612e-015 -9.63484e-015
lhumerus -33.9026 -18.3306 87.2826
lradius 58.605
lwrist 23.9416
lhand -31.2444 55.1669
lfingers 7.12502
lthumb -4.51911 -1354.9
rfemur -9.59071 8.19023 15.608
rtibia 15.811
rfoot -11.5578 -11.8055
rtoes -15.2899
lfemur -13.5466 -4.53257 -11.2977
ltibia 21.7998
lfoot -6.60974 8.67202
ltoes -39.1156
2491
root -7.98237 17.7388 -4.0505 -280.446 89.0387 -287.599
lowerback 5.70373 -0.56022 -1.85223
upperback 1.18093 -0.827376 0.336275
thorax -1.9499 -0.393516 1.44502
lowerneck -21.2327 -4.67259 -5.19891
upperneck 38.3803 -4.20918 1.01335
head 18.0549 -1.9349 0.610224
rclavicle 3.66509e-015 1.61016e-014
rhumerus -31.5029 15.5452 -76.5306
rradius 57.5896
rwrist -19.0517
rhand -46.5864 32.3624
rfingers 7.12502
rthumb -19.3097 3.30107
lclavicle 3.66509e-015 1.61016e-014
lhumerus -33.3619 -16.8178 87.2372
lradius 57.2659
lwrist 24.6566
lhand -31.2626 55.5594
lfingers 7.12502
lthumb -4.5367 -1354.51
rfemur -9.38138 8.46308 15.9752
rtibia 15.518
rfoot -11.307 -11.9864
rtoes -14.8385
lfemur -13.5638 -4.82058 -10.8954
ltibia 21.8291
lfoot -6.02777 8.78482
ltoes -38.9823
2492
root -8.01231 17.7492 -3.9439 -275.352 88.9882 -282.367
lowerback 5.82939 -0.510173 -1.66931
upperback 1.20567 -0.747255 0.497523
thorax -1.99789 -0.353561 1.50381
lowerneck -21.2003 -4.93 -5.42028
upperneck 38.0965 -4.64008 1.24598
head 17.9236 -2.11176 0.661509
rclavicle 2.06239e-015 -3.97569e-015
rhumerus -30.428 14.6748 -76.5439
rradius 55.7614
rwrist -18.4612
rhand -47.5528 34.0109
rfingers 7.12502
rthumb -20.2386 5.04528
lclavicle 2.06239e-015 -3.97569e-015
lhumerus -32.8537 -15.55 87.2293
lradius 56.1083
lwrist 25.4736
lhand -31.2961 56.1192
lfingers 7.12502
lthumb -4.5691 -1353.95
rfemur -9.16991 8.60142 16.2992
rtibia 15.2446
rfoot -11.1186 -12.0524
rtoes -14.7409
lfemur -13.5796 -4.997 -10.557
ltibia 21.8501
lfoot -5.39605 8.8236
ltoes -38.6159
2493
root -8.0465 17.7606 -3.84152 -276.191 88.8218 -283.183
lowerback 5.89955 -0.427234 -1.57725
upperback 1.18389 -0.628955 0.643241
thorax -2.06334 -0.29399 1.5943
lowerneck -21.0874 -5.13841 -5.61354
upperneck 37.7281 -4.99199 1.43292
head 17.7215 -2.26193 0.704586
rclavicle 1.35671e-014 -4.57205e-015
rhumerus -29.4078 13.8121 -76.5493
rradius 54.0531
rwrist -18.1242
rhand -48.0893 35.8903
rfingers 7.12502
rthumb -20.7542 6.98016
lclavicle 1.35671e-014 -4.57205e-015
lhumerus -32.3817 -14.3049 87.2645
lradius 55.0409
lwrist 26.2106
lhand -31.2065 56.9833
lfingers 7.12502
lthumb -4.48256 -1353.08
rfemur -9.1445 8.62705 16.4636
rtibia 15.0094
rfoot -11.0497 -11.874
rtoes -14.3384
lfemur -13.7056 -5.1785 -10.3505
ltibia 21.8653
lfoot -4.74068 9.02008
ltoes -38.3764
